<svg width="33" height="34" viewBox="0 0 33 34" fill="none" xmlns="http://www.w3.org/2000/svg">
<g id="Group 1459">
<circle id="Ellipse 304" cx="16.5" cy="16.5" r="16.5" fill="#002E66"/>
<g id="Group 1458">
<g id="Mask group">
<path id="Intersect" fill-rule="evenodd" clip-rule="evenodd" d="M10.8687 32.5642C11.4989 30.6399 11.6431 29.0905 11.6271 28.482C11.0597 28.7584 9.76761 28.8251 7.42183 27.6102C4.73433 26.2183 4.9667 24.2023 5.03741 23.6608C5.09994 23.1818 6.39674 21.9502 7.13576 21.3642C8.14273 20.6668 8.61379 18.3103 8.72345 17.2193C8.68912 14.7038 9.86297 13.6747 10.4542 13.4746C9.82482 12.2855 9.81052 10.4541 9.88204 9.68704L12.2993 11.8167V8.54362H12.5568C12.6255 11.0477 13.2243 12.0835 13.5151 12.2883C13.4198 11.8024 13.2863 10.4932 13.5151 9.14392C13.744 7.79468 14.2875 7.52407 14.5307 7.55742C14.1989 9.64988 14.8597 10.6113 15.2316 10.8305C14.4878 8.96669 16.1232 7.50025 17.0338 7H18.6215C17.2026 7.88043 16.6381 9.43454 16.5332 10.1015C16.8307 9.02672 18.8504 7.586 19.823 7C22.2718 7.09147 23.9711 8.82948 24.5146 9.68704C23.0041 10.1444 22.4549 11.164 22.3691 11.6166H25.1296C26.6401 13.8005 26.3407 18.8916 26.0022 21.1641C25.7733 20.238 24.0664 18.9964 23.2416 18.4914C24.0998 19.509 24.8579 20.964 25.1296 21.5643C25.2212 22.8107 24.9008 24.8469 24.7291 25.7092C24.6834 25.309 23.1367 24.3895 22.3691 23.9798L23.9138 26.5239C24.5035 28.5508 24.4517 30.6308 24.2455 32.1111C22.0495 33.1301 19.6022 33.6988 17.022 33.6988C14.8537 33.6988 12.7791 33.2971 10.8687 32.5642Z" fill="white"/>
</g>
</g>
</g>
</svg>
