<svg width="18" height="20" viewBox="0 0 18 20" fill="none" xmlns="http://www.w3.org/2000/svg">
<path d="M11.8357 16.3C11.8357 17.7912 10.5661 19 9 19C7.4339 19 6.16432 17.7912 6.16432 16.3M10.6981 4.8147C11.1097 4.40978 11.3631 3.85806 11.3631 3.25C11.3631 2.00736 10.3051 1 9 1C7.69492 1 6.63694 2.00736 6.63694 3.25C6.63694 3.85806 6.89026 4.40978 7.3019 4.8147M14.6714 9.28C14.6714 8.03879 14.0738 6.84841 13.0103 5.97074C11.9467 5.09307 10.5041 4.6 9 4.6C7.49586 4.6 6.05333 5.09307 4.98975 5.97074C3.92616 6.84841 3.32865 8.03879 3.32865 9.28C3.32865 11.3336 2.79377 12.8355 2.12638 13.9102C1.36573 15.1351 0.985409 15.7475 1.00043 15.8938C1.01761 16.0612 1.04925 16.114 1.19181 16.2132C1.31642 16.3 1.94248 16.3 3.1946 16.3H14.8054C16.0575 16.3 16.6836 16.3 16.8082 16.2132C16.9508 16.114 16.9824 16.0612 16.9996 15.8938C17.0146 15.7475 16.6343 15.1351 15.8736 13.9102C15.2062 12.8355 14.6714 11.3336 14.6714 9.28Z" stroke="white" stroke-width="1.5" stroke-linecap="round" stroke-linejoin="round"/>
</svg>
